<svg xmlns="http://www.w3.org/2000/svg" xmlns:xlink="http://www.w3.org/1999/xlink" viewBox="0 0 59.51 54.93"><defs><style>.cls-1,.cls-11{fill:none;}.cls-1{clip-rule:evenodd;}.cls-2{fill:#39e3e5;}.cls-16,.cls-18,.cls-2,.cls-4{fill-rule:evenodd;}.cls-3{clip-path:url(#clip-path);}.cls-4{fill:#52f0f2;}.cls-5{fill:#f0b305;stroke:#bc6548;}.cls-10,.cls-11,.cls-12,.cls-5,.cls-8,.cls-9{stroke-miterlimit:10;}.cls-11,.cls-5,.cls-8,.cls-9{stroke-width:0.5px;}.cls-6{fill:#bc6548;}.cls-7{fill:#fff;}.cls-17,.cls-8{fill:#bd6549;}.cls-8,.cls-9{stroke:#bd6549;}.cls-9{fill:#cc9306;}.cls-10{fill:#723b17;}.cls-10,.cls-11,.cls-12{stroke:#310;}.cls-10,.cls-12{stroke-width:0.25px;}.cls-12{fill:#59280e;}.cls-13{fill:#972b7b;}.cls-14{fill:#661c89;}.cls-15{fill:#521e87;}.cls-16{fill:#d99025;}.cls-18{fill:#f1b406;}.cls-19{fill:#c77eb3;}.cls-20{fill:#eebfda;}</style><clipPath id="clip-path" transform="translate(0 1.96)"><polygon class="cls-1" points="17.1 2.77 42.58 2.77 48.4 13.57 48.4 34.78 42.58 45.48 17.53 45.48 10.84 35.38 10.84 12.28 17.1 2.77"/></clipPath></defs><g id="Layer_2" data-name="Layer 2"><g id="Layer_1-2" data-name="Layer 1"><polygon class="cls-2" points="42.83 48.49 17.06 48.49 10.84 38.38 10.84 27.37 48.4 27.37 48.4 38.47 42.83 48.49"/><g class="cls-3"><polygon class="cls-2" points="29.89 27.42 11.8 6.09 22.91 0.33 29.89 27.42"/><polygon class="cls-4" points="29.89 27.42 22.91 0.33 35.42 0 29.89 27.42"/><polygon class="cls-2" points="29.89 27.42 35.42 0 46.82 5.16 29.89 27.42"/><polygon class="cls-4" points="29.89 27.42 46.83 5.16 54.84 14.77 29.89 27.42"/><polygon class="cls-2" points="29.89 27.42 13.35 49.97 5.17 40.5 29.89 27.42"/><polygon class="cls-4" points="29.89 27.42 5.17 40.5 1.94 28.41 29.89 27.42"/><polygon class="cls-2" points="29.89 27.42 1.94 28.41 4.3 16.12 29.89 27.42"/><polygon class="cls-4" points="29.89 27.42 4.3 16.12 11.79 6.09 29.89 27.42"/><polygon class="cls-2" points="29.89 27.42 54.84 14.78 57.86 26.93 29.89 27.42"/><polygon class="cls-4" points="29.89 27.42 57.86 26.93 55.27 39.18 29.89 27.42"/><polygon class="cls-2" points="29.89 27.42 55.27 39.17 47.61 49.07 29.89 27.42"/><polygon class="cls-4" points="29.89 27.42 47.61 49.07 36.39 54.63 29.89 27.42"/><polygon class="cls-4" points="29.89 27.42 24.84 54.93 13.35 49.98 29.89 27.42"/></g><path class="cls-5" d="M7.63,51.52l7.66-16.67L10.67,31.5,4.74,44.42c-1.21,2.64-.5,6,1.6,7.53h0A.84.84,0,0,0,7.63,51.52Z" transform="translate(0 1.96)"/><path class="cls-5" d="M5.39,43l8.13-17.7L9.71,22.57,3.78,35.48c-1.22,2.64-.5,6,1.61,7.55Z" transform="translate(0 1.96)"/><path class="cls-5" d="M5.45,31.83l8.11-17.71-2.63-1.9L4.31,26.67a4.34,4.34,0,0,0,1.14,5.16Z" transform="translate(0 1.96)"/><path class="cls-6" d="M4.6,49.44s1.65,5.12,10.61-14.67L7.63,51.52S7,52.85,5.74,51.36A5.51,5.51,0,0,1,4.6,49.44Z" transform="translate(0 1.96)"/><path class="cls-6" d="M8.63,34s-3.19,9.62-4.9,6.77A5,5,0,0,0,5.37,43l3.35-7.29A2.68,2.68,0,0,1,8.63,35Z" transform="translate(0 1.96)"/><path class="cls-7" d="M8.63,17.35v1.83S3.57,27.72,4.47,30.61a4.48,4.48,0,0,1,0-4.13Z" transform="translate(0 1.96)"/><path class="cls-6" d="M8.63,23.36s-2.54,9-4.16,7.25a3.29,3.29,0,0,0,1,1.13l3.2-7Z" transform="translate(0 1.96)"/><path class="cls-7" d="M8.63,25.05,3.69,35.81a6.7,6.7,0,0,0-.2,4.31c-.41-2.9,5.14-13.21,5.14-13.21V25.05Z" transform="translate(0 1.96)"/><path class="cls-7" d="M4.46,49S4.15,45.56,9.24,36.9A4,4,0,0,1,9,36.5a4.3,4.3,0,0,1-.26-.69l-.94,2.12c-.57,1.26-1.33,2.91-2.09,4.51C4.83,44.33,3.7,46.16,4.46,49Z" transform="translate(0 1.96)"/><path class="cls-5" d="M51.74,51.52,44.08,34.85,48.7,31.5l5.93,12.92c1.22,2.64.5,6-1.6,7.53h0A.84.84,0,0,1,51.74,51.52Z" transform="translate(0 1.96)"/><path class="cls-5" d="M54,43l-8.13-17.7,3.81-2.76,5.93,12.91c1.22,2.64.5,6-1.61,7.55Z" transform="translate(0 1.96)"/><path class="cls-5" d="M53.93,31.83,45.82,14.12l2.62-1.9,6.62,14.45a4.35,4.35,0,0,1-1.13,5.16Z" transform="translate(0 1.96)"/><path class="cls-6" d="M54.77,49.44s-1.65,5.12-10.61-14.67l7.58,16.75s.69,1.33,1.89-.16A5.51,5.51,0,0,0,54.77,49.44Z" transform="translate(0 1.96)"/><path class="cls-6" d="M50.74,34s3.19,9.62,4.9,6.77A5,5,0,0,1,54,43l-3.35-7.29a2.68,2.68,0,0,0,.09-.69Z" transform="translate(0 1.96)"/><path class="cls-7" d="M50.74,17.35v1.83s5.06,8.54,4.16,11.43A4.48,4.48,0,0,0,55,26.48Z" transform="translate(0 1.96)"/><path class="cls-6" d="M50.74,23.36s2.55,9,4.16,7.25a3.29,3.29,0,0,1-1,1.13l-3.2-7Z" transform="translate(0 1.96)"/><path class="cls-7" d="M50.74,25.05l4.94,10.76a6.7,6.7,0,0,1,.2,4.31c.42-2.9-5.14-13.21-5.14-13.21V25.05Z" transform="translate(0 1.96)"/><path class="cls-7" d="M54.92,49s.3-3.45-4.79-12.11a4,4,0,0,0,.22-.4,4.3,4.3,0,0,0,.26-.69l.94,2.12c.57,1.26,1.33,2.91,2.09,4.51C54.54,44.33,55.67,46.16,54.92,49Z" transform="translate(0 1.96)"/><path class="cls-8" d="M36.66,38.19c0,.52-3,.94-6.64.94s-6.63-.42-6.63-.94,3-.95,6.63-.95S36.66,37.67,36.66,38.19Z" transform="translate(0 1.96)"/><path class="cls-9" d="M36.66,38.19V42.3c0,.52-3,1-6.64,1s-6.63-.43-6.63-1V38.19c0,.52,3,.94,6.63.94S36.66,38.71,36.66,38.19Z" transform="translate(0 1.96)"/><path class="cls-10" d="M25,38.84a36.56,36.56,0,0,0,.2-4.22,3.24,3.24,0,0,1-1-1.83,8.39,8.39,0,0,1-.27-1.6c-.2-2.7-.6-3.31-.6-3.31a7.19,7.19,0,0,1-.14-3.63c.4-2.22.58-5.45.58-5.45a44.64,44.64,0,0,0-.3-4.61,6.72,6.72,0,0,1,0-2.14,1.38,1.38,0,0,1,1.29-1,1.55,1.55,0,0,1,1.49.62,13,13,0,0,1,.37,2.5c0,1-.1,3.4,0,4.67a7.45,7.45,0,0,1,0,1.77,2.34,2.34,0,0,1,2.4-.12,4.38,4.38,0,0,1,3.37-.08,35,35,0,0,1-.16-5.23c.24-.62,1.29-.84,1.29-.84s1.33-.23,1.56.72a28.73,28.73,0,0,1,0,5.64,8.82,8.82,0,0,0,.11,1.79,17.37,17.37,0,0,1,.31,4.69s.26,6.27-1.61,7.57a16.52,16.52,0,0,0,1.23,4.12c-.91.14-2.26.18-4,.28A29.61,29.61,0,0,1,25,38.84Z" transform="translate(0 1.96)"/><path class="cls-11" d="M24,27.22A4.46,4.46,0,0,1,25.55,25c1.07-.61,3.05-1.94,3.05-1.94s2-1.11,2.87.36-1.36,2.85-1.36,2.85a9.38,9.38,0,0,1-2.46,1.37" transform="translate(0 1.96)"/><path class="cls-11" d="M28.74,30.1S29,28.32,28,27.55" transform="translate(0 1.96)"/><path class="cls-11" d="M29.23,26.91s-.59,2.41,1.18,2.47,1.8-2.29,1.8-2.29a43.14,43.14,0,0,0,.36-5.81,6,6,0,0,0-.26-.83" transform="translate(0 1.96)"/><path class="cls-11" d="M26.27,24.6s-.2-3.32.27-4" transform="translate(0 1.96)"/><path class="cls-11" d="M29,22.86a10,10,0,0,0-.06-2.33" transform="translate(0 1.96)"/><path class="cls-11" d="M29.64,32.91a8.83,8.83,0,0,0,.17-3.68" transform="translate(0 1.96)"/><path class="cls-11" d="M24.16,32.79a9.83,9.83,0,0,0,2.63-2.69" transform="translate(0 1.96)"/><path class="cls-11" d="M27.41,30.1s-.78,1.75-2.06,1.72" transform="translate(0 1.96)"/><path class="cls-11" d="M32.61,18.5a4.64,4.64,0,0,0,2-.05" transform="translate(0 1.96)"/><path class="cls-11" d="M32.86,21.38a3.38,3.38,0,0,0,1.79,0" transform="translate(0 1.96)"/><path class="cls-11" d="M32.41,25.19a3.6,3.6,0,0,1,1.92.18" transform="translate(0 1.96)"/><path class="cls-11" d="M24.7,22.35s.64,1.36,1.56,1.45" transform="translate(0 1.96)"/><path class="cls-11" d="M24.06,15.15a4.07,4.07,0,0,0,1.81,0" transform="translate(0 1.96)"/><path class="cls-11" d="M24.28,18.94a2.66,2.66,0,0,0,1.59-.06" transform="translate(0 1.96)"/><path class="cls-12" d="M29.71,26.9a2.32,2.32,0,0,1,1.82.06s.15,1.42-.38,1.76a1.8,1.8,0,0,1-1.36-.14A2.42,2.42,0,0,1,29.71,26.9Z" transform="translate(0 1.96)"/><path class="cls-12" d="M28.84,23.68a6.14,6.14,0,0,0,.78,1.86,2.83,2.83,0,0,0,1.27-.92,4.72,4.72,0,0,1-.67-1.48A2.61,2.61,0,0,0,28.84,23.68Z" transform="translate(0 1.96)"/><path class="cls-11" d="M29.94,21.18s1-.49,1.61,0" transform="translate(0 1.96)"/><path class="cls-11" d="M27.08,21.1a1.3,1.3,0,0,1,1.31,0" transform="translate(0 1.96)"/><path class="cls-11" d="M27.08,24.91a2.37,2.37,0,0,0,.73,1.4" transform="translate(0 1.96)"/><path class="cls-13" d="M50.32,11.54,44.77,1.92A3.85,3.85,0,0,0,41.44,0H18a3.82,3.82,0,0,0-3.32,1.92L9.15,11.51a3.84,3.84,0,0,0-.52,1.92v21.4a3.84,3.84,0,0,0,.52,1.92l5.54,9.59A3.82,3.82,0,0,0,18,48.26H41.44a3.85,3.85,0,0,0,3.33-1.92l5.54-9.61a3.78,3.78,0,0,0,.52-1.91V13.47A3.85,3.85,0,0,0,50.32,11.54ZM47.11,32.75a3.84,3.84,0,0,1-.52,1.92l-4.28,7.41A3.83,3.83,0,0,1,39,44H20.47a3.82,3.82,0,0,1-3.32-1.92l-4.28-7.4a3.81,3.81,0,0,1-.51-1.92V15.5a3.83,3.83,0,0,1,.51-1.92l4.28-7.4a3.82,3.82,0,0,1,3.32-1.92H39a3.83,3.83,0,0,1,3.32,1.92l4.29,7.43a3.82,3.82,0,0,1,.52,1.92Z" transform="translate(0 1.96)"/><path class="cls-14" d="M42.31,6.18A3.83,3.83,0,0,0,39,4.26H20.47a3.82,3.82,0,0,0-3.32,1.92l-4.28,7.4a3.83,3.83,0,0,0-.51,1.92V32.76a3.81,3.81,0,0,0,.51,1.92l4.28,7.4A3.82,3.82,0,0,0,20.47,44H39a3.83,3.83,0,0,0,3.32-1.92l4.28-7.41a3.84,3.84,0,0,0,.52-1.92V15.53a3.82,3.82,0,0,0-.52-1.92Zm3.53,25.87A3.83,3.83,0,0,1,45.33,34l-3.85,6.67a3.85,3.85,0,0,1-3.33,1.92H21.31A3.84,3.84,0,0,1,18,40.64L14.13,34a3.94,3.94,0,0,1-.51-1.92V16.2a3.94,3.94,0,0,1,.51-1.92L18,7.62A3.84,3.84,0,0,1,21.31,5.7H38.15a3.85,3.85,0,0,1,3.33,1.92l3.86,6.69a3.91,3.91,0,0,1,.51,1.92Z" transform="translate(0 1.96)"/><path class="cls-15" d="M41.48,7.62A3.85,3.85,0,0,0,38.15,5.7H21.31A3.84,3.84,0,0,0,18,7.62l-3.85,6.66a3.94,3.94,0,0,0-.51,1.92V32.06A3.94,3.94,0,0,0,14.13,34L18,40.64a3.84,3.84,0,0,0,3.33,1.92H38.15a3.85,3.85,0,0,0,3.33-1.92L45.33,34a3.83,3.83,0,0,0,.51-1.92V16.23a3.91,3.91,0,0,0-.51-1.92Zm3.36,23.87a3.91,3.91,0,0,1-.51,1.92l-3.52,6.08a3.82,3.82,0,0,1-3.32,1.92H22a3.85,3.85,0,0,1-3.33-1.92l-3.5-6.07a3.82,3.82,0,0,1-.52-1.92V16.76a3.84,3.84,0,0,1,.52-1.92l3.5-6.07A3.85,3.85,0,0,1,22,6.85H37.49a3.82,3.82,0,0,1,3.32,1.92l3.52,6.09a3.85,3.85,0,0,1,.52,1.93Z" transform="translate(0 1.96)"/><path class="cls-16" d="M59.48,22.77,59,22.39a41.6,41.6,0,0,0-8.16-5.09c0-.21,0-7.55,0-8.71A41.91,41.91,0,0,1,59,13.7l.48.39-.34.24q-1.28.91-2.58,2,1.29,2.79,2.55,5.71c.11.26.22.52.34.78Z" transform="translate(0 1.96)"/><path class="cls-16" d="M8.63,17.17A40.18,40.18,0,0,0,.5,22.36L0,22.75c.11-.27.22-.53.34-.79C1.2,20,2,18.13,2.89,16.27,2,15.58,1.18,14.93.34,14.33L0,14.09l.47-.39A40.54,40.54,0,0,1,8.63,8.48Z" transform="translate(0 1.96)"/><path class="cls-17" d="M5.5,13.93c1.1-.39,3.65-1.23,3.65-1.23a4.14,4.14,0,0,0-.52,2.36C8.25,14.91,7.87,14.77,5.5,13.93Z" transform="translate(0 1.96)"/><path class="cls-17" d="M50.32,12.73A4.3,4.3,0,0,1,50.85,15c1.06-.37,2.11-.73,3.15-1.06" transform="translate(0 1.96)"/><path class="cls-18" d="M54.23,14l-.33-.11a72,72,0,0,0-48.15-.07L5.43,14V4.54l.32-.11a72,72,0,0,1,48.15.06l.33.12V14Z" transform="translate(0 1.96)"/><polygon class="cls-19" points="12.36 25.66 12.36 33.33 8.63 35.29 8.63 27.54 12.36 25.66"/><polygon class="cls-7" points="12.36 28.72 12.36 33.33 8.63 35.29 8.63 30.61 12.36 28.72"/><polygon class="cls-20" points="12.36 33.29 12.36 35.33 8.63 37.29 8.63 35.18 12.36 33.29"/><polygon class="cls-20" points="50.84 23.89 50.84 25.93 47.12 27.89 47.12 25.78 50.84 23.89"/><polygon class="cls-19" points="50.84 16.26 50.84 23.93 47.12 25.89 47.12 18.14 50.84 16.26"/><polygon class="cls-7" points="50.84 19.32 50.84 23.93 47.12 25.89 47.12 21.21 50.84 19.32"/></g></g></svg>