<svg xmlns="http://www.w3.org/2000/svg" xmlns:xlink="http://www.w3.org/1999/xlink" viewBox="0 0 57.9 53.46"><defs><style>.cls-1,.cls-11{fill:none;}.cls-1{clip-rule:evenodd;}.cls-2{fill:#39e3e5;}.cls-2,.cls-20,.cls-22,.cls-4{fill-rule:evenodd;}.cls-3{clip-path:url(#clip-path);}.cls-4{fill:#52f0f2;}.cls-5{fill:#f0b305;stroke:#bc6548;}.cls-10,.cls-11,.cls-12,.cls-13,.cls-14,.cls-15,.cls-16,.cls-5,.cls-8,.cls-9{stroke-miterlimit:10;}.cls-11,.cls-12,.cls-14,.cls-15,.cls-5,.cls-8,.cls-9{stroke-width:0.5px;}.cls-6{fill:#bc6548;}.cls-7{fill:#fff;}.cls-8{fill:#cc9306;}.cls-8,.cls-9{stroke:#bd6549;}.cls-21,.cls-9{fill:#bd6549;}.cls-10,.cls-13{fill:#f7d7ba;}.cls-10,.cls-11,.cls-13{stroke:#cc9f7a;}.cls-10,.cls-16{stroke-width:0.25px;}.cls-12,.cls-22{fill:#f1b406;}.cls-12{stroke:#bf8a06;}.cls-14{fill:#5c5a58;stroke:#3f3e3d;}.cls-15{fill:#999;stroke:#838383;}.cls-16{fill:#f4c59f;stroke:#f2b486;}.cls-17{fill:#972b7b;}.cls-18{fill:#661c89;}.cls-19{fill:#521e87;}.cls-20{fill:#d99025;}.cls-23{fill:#c77eb3;}.cls-24{fill:#eebfda;}</style><clipPath id="clip-path" transform="translate(0 1.91)"><polygon class="cls-1" points="16.64 2.69 41.44 2.69 47.09 13.21 47.09 33.84 41.44 44.26 17.06 44.26 10.55 34.42 10.55 11.95 16.64 2.69"/></clipPath></defs><g id="Layer_2" data-name="Layer 2"><g id="Layer_1-2" data-name="Layer 1"><polygon class="cls-2" points="41.67 47.19 16.6 47.19 10.55 37.34 10.55 26.63 47.09 26.63 47.09 37.44 41.67 47.19"/><g class="cls-3"><polygon class="cls-2" points="29.09 26.68 11.48 5.92 22.3 0.32 29.09 26.68"/><polygon class="cls-4" points="29.09 26.68 22.3 0.32 34.47 0 29.09 26.68"/><polygon class="cls-2" points="29.09 26.68 34.47 0 45.56 5.02 29.09 26.68"/><polygon class="cls-4" points="29.09 26.68 45.56 5.02 53.36 14.37 29.09 26.68"/><polygon class="cls-2" points="29.09 26.68 12.99 48.63 5.03 39.41 29.09 26.68"/><polygon class="cls-4" points="29.09 26.68 5.03 39.41 1.89 27.64 29.09 26.68"/><polygon class="cls-2" points="29.09 26.68 1.89 27.65 4.19 15.69 29.09 26.68"/><polygon class="cls-4" points="29.09 26.68 4.19 15.69 11.47 5.93 29.09 26.68"/><polygon class="cls-2" points="29.09 26.68 53.37 14.38 56.3 26.2 29.09 26.68"/><polygon class="cls-4" points="29.09 26.68 56.3 26.2 53.78 38.12 29.09 26.68"/><polygon class="cls-2" points="29.09 26.68 53.79 38.12 46.33 47.75 29.09 26.68"/><polygon class="cls-4" points="29.09 26.68 46.33 47.75 35.41 53.16 29.09 26.68"/><polygon class="cls-4" points="29.09 26.68 24.17 53.45 12.99 48.63 29.09 26.68"/></g><path class="cls-5" d="M7.43,50.13l7.45-16.22-4.49-3.26L4.61,43.23c-1.18,2.56-.48,5.84,1.56,7.32h0A.83.83,0,0,0,7.43,50.13Z" transform="translate(0 1.91)"/><path class="cls-5" d="M5.24,41.87l7.91-17.22L9.45,22,3.68,34.52c-1.19,2.58-.48,5.87,1.56,7.35Z" transform="translate(0 1.91)"/><path class="cls-5" d="M5.3,31l7.89-17.23-2.56-1.85L4.19,26A4.24,4.24,0,0,0,5.3,31Z" transform="translate(0 1.91)"/><path class="cls-6" d="M4.48,48.11s1.6,5,10.32-14.27L7.43,50.13s-.67,1.3-1.84-.15A5.37,5.37,0,0,1,4.48,48.11Z" transform="translate(0 1.91)"/><path class="cls-6" d="M8.4,33.08s-3.11,9.35-4.77,6.58a4.83,4.83,0,0,0,1.6,2.13L8.49,34.7A2.59,2.59,0,0,1,8.4,34Z" transform="translate(0 1.91)"/><path class="cls-7" d="M8.4,16.88v1.78S3.47,27,4.35,29.79a4.35,4.35,0,0,1,0-4Z" transform="translate(0 1.91)"/><path class="cls-6" d="M8.4,22.74s-2.48,8.73-4.05,7.05a3.22,3.22,0,0,0,.93,1.1L8.4,24.07Z" transform="translate(0 1.91)"/><path class="cls-7" d="M8.4,24.38,3.59,34.85A6.54,6.54,0,0,0,3.4,39c-.41-2.82,5-12.86,5-12.86v-1.8Z" transform="translate(0 1.91)"/><path class="cls-7" d="M4.34,47.69S4,44.34,9,35.91a2.48,2.48,0,0,1-.21-.39,3.3,3.3,0,0,1-.25-.67c-.21.46-.53,1.18-.92,2.06-.55,1.22-1.29,2.84-2,4.39C4.7,43.14,3.6,44.92,4.34,47.69Z" transform="translate(0 1.91)"/><path class="cls-5" d="M50.35,50.13,42.89,33.91l4.5-3.26,5.77,12.58c1.18,2.56.48,5.84-1.56,7.32h0A.82.82,0,0,1,50.35,50.13Z" transform="translate(0 1.91)"/><path class="cls-5" d="M52.53,41.87,44.62,24.65,48.33,22,54.1,34.52c1.18,2.58.48,5.87-1.57,7.35Z" transform="translate(0 1.91)"/><path class="cls-5" d="M52.47,31,44.58,13.74l2.56-1.85L53.58,26a4.22,4.22,0,0,1-1.11,5Z" transform="translate(0 1.91)"/><path class="cls-6" d="M53.29,48.11s-1.6,5-10.32-14.27l7.38,16.29s.67,1.3,1.84-.15A5.42,5.42,0,0,0,53.29,48.11Z" transform="translate(0 1.91)"/><path class="cls-6" d="M49.37,33.08s3.11,9.35,4.78,6.58a4.91,4.91,0,0,1-1.6,2.13L49.28,34.7a2.59,2.59,0,0,0,.09-.67Z" transform="translate(0 1.91)"/><path class="cls-7" d="M49.37,16.88v1.78S54.3,27,53.42,29.79a4.37,4.37,0,0,0,0-4Z" transform="translate(0 1.91)"/><path class="cls-6" d="M49.37,22.74s2.48,8.73,4.05,7.05a3.22,3.22,0,0,1-.93,1.1l-3.12-6.82Z" transform="translate(0 1.91)"/><path class="cls-7" d="M49.37,24.38l4.81,10.47A6.46,6.46,0,0,1,54.37,39c.41-2.82-5-12.86-5-12.86v-1.8Z" transform="translate(0 1.91)"/><path class="cls-7" d="M53.44,47.69s.3-3.35-4.66-11.78a3.84,3.84,0,0,0,.22-.39,5.18,5.18,0,0,0,.25-.67l.91,2.06c.56,1.22,1.29,2.84,2,4.39C53.08,43.14,54.17,44.92,53.44,47.69Z" transform="translate(0 1.91)"/><path class="cls-8" d="M34,36v4.73c0,.42-2.42.77-5.41.77s-5.42-.35-5.42-.77V36Z" transform="translate(0 1.91)"/><ellipse class="cls-9" cx="28.63" cy="37.93" rx="5.42" ry="0.76"/><path class="cls-10" d="M23.81,36.42a9.47,9.47,0,0,0,1.05-4c.06-1.38-.24-1.56-.24-1.56A3.67,3.67,0,0,1,22,27.62a31.43,31.43,0,0,1-.11-4.84A5.12,5.12,0,0,1,23,20.06a6.64,6.64,0,0,1,2.63-1.44,1.16,1.16,0,0,1,1.74.69,1.58,1.58,0,0,1,2.51,0c1.2-1.4,2.63.15,2.63.15a1.84,1.84,0,0,1,2.43,0c1.14.69.71,4.82.71,4.82a13.93,13.93,0,0,1-1,4.74,2.77,2.77,0,0,1-2.27,2,6,6,0,0,0-.17,1.68,18,18,0,0,0,.84,3.85,27.5,27.5,0,0,1-4.28.35A25.54,25.54,0,0,1,23.81,36.42Z" transform="translate(0 1.91)"/><path class="cls-11" d="M35.66,20.89s-.12,1.54-.33,2.57c0,0-.46,3-2,2.64,0,0-1-.21-.84-.78a8.68,8.68,0,0,0,.48-3.09,23.49,23.49,0,0,0-.38-2.82" transform="translate(0 1.91)"/><path class="cls-11" d="M29.92,19.25A11.43,11.43,0,0,1,30,23.44s-.4,1.73.05,2.13a2.15,2.15,0,0,0,2.39.08" transform="translate(0 1.91)"/><path class="cls-11" d="M24,26.28a1.17,1.17,0,0,0,.3-1.36,1.45,1.45,0,0,1,.49-1.58s3.32-2.06,2.63-4.05" transform="translate(0 1.91)"/><path class="cls-11" d="M27.38,20.51a4.15,4.15,0,0,1,.09,2.41s-.81,1.57-.15,2.36a2,2,0,0,0,2.6-.06" transform="translate(0 1.91)"/><path class="cls-11" d="M27.08,24.4s-1,1.82-2.11,1.26A1.36,1.36,0,0,1,24.29,24" transform="translate(0 1.91)"/><path class="cls-12" d="M39.47,23.94H35.22c.12-.56.23-1.16.31-1.81.06-.47.1-.91.13-1.33h3.81Z" transform="translate(0 1.91)"/><polygon class="cls-13" points="39.71 25.65 39.71 22.9 42.4 24.27 42.4 24.27 39.71 25.65"/><polygon class="cls-14" points="41.81 24.68 41.81 23.87 42.62 24.27 42.62 24.27 41.81 24.68"/><path class="cls-12" d="M18,23.94h3.88A10.73,10.73,0,0,1,22,22.21a4.82,4.82,0,0,1,.55-1.46H18Z" transform="translate(0 1.91)"/><rect class="cls-15" x="17.93" y="22.63" width="1.48" height="3.27"/><path class="cls-8" d="M17.93,22.75h0a0,0,0,0,1,0,0v3a0,0,0,0,1,0,0h0a1.27,1.27,0,0,1-1.27-1.27V24A1.27,1.27,0,0,1,17.93,22.75Z"/><path class="cls-16" d="M24.71,19.11s1.25-.5,1.35-.58.58,0,.73,1a2.24,2.24,0,0,1-1.33.53S25.13,20,24.71,19.11Z" transform="translate(0 1.91)"/><path class="cls-11" d="M26.21,27.62s2.34-.72,2.41-1.73c0,0,.06,2.65-.54,3.28" transform="translate(0 1.91)"/><path class="cls-11" d="M30.26,27.84s-1.48-.63-1.64-1.44" transform="translate(0 1.91)"/><path class="cls-16" d="M24.65,24.83s.7.63,1.14.59a2.62,2.62,0,0,0,.68-.62,1.94,1.94,0,0,0-1.08-.68A2.05,2.05,0,0,0,24.65,24.83Z" transform="translate(0 1.91)"/><path class="cls-16" d="M28.05,23.94a6,6,0,0,0-.15,1c0,.33,1.71.48,1.78.13a2.66,2.66,0,0,0,0-1A3.91,3.91,0,0,0,28.05,23.94Z" transform="translate(0 1.91)"/><path class="cls-16" d="M30.67,24.12a4.28,4.28,0,0,0-.09,1s1.53.37,1.69.05a2,2,0,0,0,0-.94A3.82,3.82,0,0,0,30.67,24.12Z" transform="translate(0 1.91)"/><path class="cls-16" d="M33.24,24.4a6.83,6.83,0,0,0-.3.86,2.58,2.58,0,0,0,1.19.33,3.67,3.67,0,0,0,.35-.82A3.25,3.25,0,0,0,33.24,24.4Z" transform="translate(0 1.91)"/><path class="cls-11" d="M25.56,26.4a.7.7,0,0,0-.38-.66" transform="translate(0 1.91)"/><path class="cls-17" d="M49,11.23,43.56,1.87A3.73,3.73,0,0,0,40.33,0H17.53a3.73,3.73,0,0,0-3.24,1.87L8.9,11.2a3.74,3.74,0,0,0-.5,1.87V33.89a3.72,3.72,0,0,0,.5,1.87l5.39,9.33A3.73,3.73,0,0,0,17.53,47h22.8a3.73,3.73,0,0,0,3.23-1.87L49,35.74a3.68,3.68,0,0,0,.5-1.86V13.1A3.74,3.74,0,0,0,49,11.23ZM45.84,31.87a3.68,3.68,0,0,1-.5,1.86L41.17,41a3.73,3.73,0,0,1-3.23,1.87h-18A3.73,3.73,0,0,1,16.68,41l-4.16-7.2a3.85,3.85,0,0,1-.5-1.87V15.08a3.78,3.78,0,0,1,.5-1.86L16.68,6a3.73,3.73,0,0,1,3.24-1.87h18A3.73,3.73,0,0,1,41.17,6l4.18,7.23a3.74,3.74,0,0,1,.5,1.87Z" transform="translate(0 1.91)"/><path class="cls-18" d="M41.17,6a3.73,3.73,0,0,0-3.23-1.87h-18A3.73,3.73,0,0,0,16.68,6l-4.16,7.21a3.78,3.78,0,0,0-.5,1.86v16.8a3.85,3.85,0,0,0,.5,1.87L16.68,41a3.73,3.73,0,0,0,3.24,1.87h18A3.73,3.73,0,0,0,41.17,41l4.17-7.22a3.68,3.68,0,0,0,.5-1.86V15.11a3.74,3.74,0,0,0-.5-1.87Zm3.44,25.18a3.71,3.71,0,0,1-.5,1.86l-3.75,6.5a3.75,3.75,0,0,1-3.24,1.86H20.73a3.73,3.73,0,0,1-3.23-1.86l-3.75-6.49a3.79,3.79,0,0,1-.5-1.87V15.77a3.82,3.82,0,0,1,.5-1.87L17.5,7.42a3.72,3.72,0,0,1,3.23-1.87H37.12a3.73,3.73,0,0,1,3.24,1.87l3.76,6.5a3.74,3.74,0,0,1,.5,1.87Z" transform="translate(0 1.91)"/><path class="cls-19" d="M40.36,7.42a3.73,3.73,0,0,0-3.24-1.87H20.73A3.72,3.72,0,0,0,17.5,7.42L13.75,13.9a3.82,3.82,0,0,0-.5,1.87V31.19a3.79,3.79,0,0,0,.5,1.87l3.75,6.49a3.73,3.73,0,0,0,3.23,1.86H37.12a3.75,3.75,0,0,0,3.24-1.86l3.75-6.5a3.71,3.71,0,0,0,.5-1.86V15.79a3.74,3.74,0,0,0-.5-1.87Zm3.27,23.22a3.72,3.72,0,0,1-.5,1.87l-3.41,5.92a3.73,3.73,0,0,1-3.24,1.87H21.38a3.73,3.73,0,0,1-3.24-1.87l-3.41-5.91a3.72,3.72,0,0,1-.5-1.87V16.31a3.74,3.74,0,0,1,.5-1.87l3.41-5.91a3.75,3.75,0,0,1,3.24-1.86h15.1a3.75,3.75,0,0,1,3.24,1.86l3.42,5.93a3.75,3.75,0,0,1,.5,1.88Z" transform="translate(0 1.91)"/><path class="cls-20" d="M57.87,22.16l-.46-.37a40.65,40.65,0,0,0-7.94-5c0-.2,0-7.34,0-8.47a40.9,40.9,0,0,1,8,5l.46.38-.33.23c-.82.6-1.66,1.23-2.5,1.9.83,1.81,1.66,3.67,2.47,5.55.12.26.22.52.33.77Z" transform="translate(0 1.91)"/><path class="cls-20" d="M8.4,16.71A38.61,38.61,0,0,0,.49,21.76L0,22.13l.33-.76c.8-1.89,1.62-3.73,2.45-5.54C2,15.16,1.14,14.53.33,13.94L0,13.71l.46-.38A38.49,38.49,0,0,1,8.4,8.26Z" transform="translate(0 1.91)"/><path class="cls-21" d="M5.35,13.56c1.07-.38,3.55-1.2,3.55-1.2a4.49,4.49,0,0,0-.4,1,3.86,3.86,0,0,0-.1,1.29C8,14.51,7.66,14.37,5.35,13.56Z" transform="translate(0 1.91)"/><path class="cls-21" d="M49,12.39a4.26,4.26,0,0,1,.51,2.21c1-.37,2.05-.71,3.07-1" transform="translate(0 1.91)"/><path class="cls-22" d="M52.77,13.64l-.32-.12a70.1,70.1,0,0,0-46.86-.06l-.31.11V4.42l.31-.11a70,70,0,0,1,46.86.06l.32.12v9.15Z" transform="translate(0 1.91)"/><polygon class="cls-23" points="12.02 24.97 12.02 32.43 8.4 34.34 8.4 26.8 12.02 24.97"/><polygon class="cls-7" points="12.02 27.95 12.02 32.43 8.4 34.34 8.4 29.78 12.02 27.95"/><polygon class="cls-24" points="12.02 32.4 12.02 34.38 8.4 36.28 8.4 34.23 12.02 32.4"/><polygon class="cls-24" points="49.47 23.25 49.47 25.23 45.85 27.14 45.85 25.08 49.47 23.25"/><polygon class="cls-23" points="49.47 15.82 49.47 23.28 45.85 25.19 45.85 17.66 49.47 15.82"/><polygon class="cls-7" points="49.47 18.8 49.47 23.28 45.85 25.19 45.85 20.64 49.47 18.8"/></g></g></svg>