<svg xmlns="http://www.w3.org/2000/svg" xmlns:xlink="http://www.w3.org/1999/xlink" viewBox="0 0 56.13 51.81"><defs><style>.cls-1,.cls-10,.cls-13{fill:none;}.cls-1{clip-rule:evenodd;}.cls-2{fill:#39e3e5;}.cls-17,.cls-19,.cls-2,.cls-4{fill-rule:evenodd;}.cls-3{clip-path:url(#clip-path);}.cls-4{fill:#52f0f2;}.cls-5{fill:#f0b305;stroke:#bc6548;}.cls-10,.cls-11,.cls-12,.cls-13,.cls-5,.cls-8,.cls-9{stroke-miterlimit:10;}.cls-10,.cls-11,.cls-5{stroke-width:0.5px;}.cls-6{fill:#bc6548;}.cls-7{fill:#fff;}.cls-18,.cls-8{fill:#bd6549;}.cls-11,.cls-8{stroke:#bd6549;}.cls-9{fill:#f7d7ba;}.cls-10,.cls-9{stroke:#b27547;}.cls-12,.cls-9{stroke-width:0.25px;}.cls-11{fill:#cc9306;}.cls-12{fill:#723b17;}.cls-12,.cls-13{stroke:#310;}.cls-13{stroke-width:0.75px;}.cls-14{fill:#972b7b;}.cls-15{fill:#661c89;}.cls-16{fill:#521e87;}.cls-17{fill:#d99025;}.cls-19{fill:#f1b406;}.cls-20{fill:#c77eb3;}.cls-21{fill:#eebfda;}</style><clipPath id="clip-path" transform="translate(0 1.85)"><polygon class="cls-1" points="16.13 2.61 40.16 2.61 45.65 12.8 45.65 32.8 40.16 42.9 16.53 42.9 10.22 33.37 10.22 11.59 16.13 2.61"/></clipPath></defs><g id="Layer_2" data-name="Layer 2"><g id="Layer_1-2" data-name="Layer 1"><polygon class="cls-2" points="40.4 45.74 16.09 45.74 10.22 36.2 10.22 25.81 45.65 25.81 45.65 36.29 40.4 45.74"/><g class="cls-3"><polygon class="cls-2" points="28.19 25.86 11.13 5.74 21.61 0.31 28.19 25.86"/><polygon class="cls-4" points="28.19 25.86 21.61 0.31 33.41 0 28.19 25.86"/><polygon class="cls-2" points="28.19 25.86 33.41 0 44.16 4.86 28.19 25.86"/><polygon class="cls-4" points="28.19 25.86 44.17 4.86 51.73 13.93 28.19 25.86"/><polygon class="cls-2" points="28.19 25.86 12.59 47.14 4.87 38.2 28.19 25.86"/><polygon class="cls-4" points="28.19 25.86 4.87 38.2 1.83 26.8 28.19 25.86"/><polygon class="cls-2" points="28.19 25.86 1.83 26.8 4.06 15.21 28.19 25.86"/><polygon class="cls-4" points="28.19 25.86 4.06 15.21 11.12 5.75 28.19 25.86"/><polygon class="cls-2" points="28.19 25.86 51.73 13.94 54.57 25.4 28.19 25.86"/><polygon class="cls-4" points="28.19 25.86 54.57 25.4 52.13 36.95 28.19 25.86"/><polygon class="cls-2" points="28.19 25.86 52.13 36.95 44.9 46.28 28.19 25.86"/><polygon class="cls-4" points="28.19 25.86 44.9 46.28 34.33 51.52 28.19 25.86"/><polygon class="cls-4" points="28.19 25.86 23.43 51.81 12.59 47.14 28.19 25.86"/></g><path class="cls-5" d="M7.2,48.59l7.22-15.72-4.35-3.16L4.47,41.9C3.33,44.39,4,47.57,6,49H6A.8.8,0,0,0,7.2,48.59Z" transform="translate(0 1.85)"/><path class="cls-5" d="M5.08,40.59,12.75,23.9,9.16,21.29,3.56,33.46C2.42,36,3.1,39.15,5.08,40.59Z" transform="translate(0 1.85)"/><path class="cls-5" d="M5.14,30l7.65-16.71-2.48-1.79L4.07,25.15A4.1,4.1,0,0,0,5.14,30Z" transform="translate(0 1.85)"/><path class="cls-6" d="M4.34,46.63s1.55,4.83,10-13.83L7.2,48.59s-.65,1.26-1.79-.15A5.19,5.19,0,0,1,4.34,46.63Z" transform="translate(0 1.85)"/><path class="cls-6" d="M8.14,32.06s-3,9.07-4.62,6.38a4.66,4.66,0,0,0,1.55,2.07l3.16-6.88A2.33,2.33,0,0,1,8.14,33Z" transform="translate(0 1.85)"/><path class="cls-7" d="M8.14,16.36v1.73S3.37,26.14,4.22,28.87a4.21,4.21,0,0,1,0-3.89Z" transform="translate(0 1.85)"/><path class="cls-6" d="M8.14,22s-2.4,8.46-3.92,6.83a3.15,3.15,0,0,0,.9,1.07l3-6.61Z" transform="translate(0 1.85)"/><path class="cls-7" d="M8.14,23.63,3.48,33.78a6.3,6.3,0,0,0-.19,4.06C2.9,35.1,8.14,25.38,8.14,25.38V23.63Z" transform="translate(0 1.85)"/><path class="cls-7" d="M4.2,46.22S3.91,43,8.71,34.81c-.08-.15-.14-.24-.2-.38a4.23,4.23,0,0,1-.25-.65c-.19.45-.5,1.15-.89,2C6.84,37,6.13,38.53,5.41,40,4.55,41.81,3.49,43.54,4.2,46.22Z" transform="translate(0 1.85)"/><path class="cls-5" d="M48.8,48.59,41.58,32.87l4.35-3.16,5.6,12.19C52.67,44.39,52,47.57,50,49h0A.8.8,0,0,1,48.8,48.59Z" transform="translate(0 1.85)"/><path class="cls-5" d="M50.92,40.59,43.25,23.9l3.59-2.61,5.6,12.17c1.14,2.5.46,5.69-1.52,7.13Z" transform="translate(0 1.85)"/><path class="cls-5" d="M50.86,30,43.21,13.31l2.48-1.79,6.24,13.63A4.1,4.1,0,0,1,50.86,30Z" transform="translate(0 1.85)"/><path class="cls-6" d="M51.66,46.63s-1.55,4.83-10-13.83L48.8,48.59s.65,1.26,1.79-.15A5.19,5.19,0,0,0,51.66,46.63Z" transform="translate(0 1.85)"/><path class="cls-6" d="M47.86,32.06s3,9.07,4.62,6.38a4.66,4.66,0,0,1-1.55,2.07l-3.16-6.88a2.33,2.33,0,0,0,.09-.64Z" transform="translate(0 1.85)"/><path class="cls-7" d="M47.86,16.36v1.73s4.77,8.05,3.92,10.78a4.21,4.21,0,0,0,0-3.89Z" transform="translate(0 1.85)"/><path class="cls-6" d="M47.86,22s2.4,8.46,3.92,6.83a3.15,3.15,0,0,1-.9,1.07l-3-6.61Z" transform="translate(0 1.85)"/><path class="cls-7" d="M47.86,23.63l4.66,10.15a6.34,6.34,0,0,1,.18,4.06c.4-2.74-4.84-12.46-4.84-12.46V23.63Z" transform="translate(0 1.85)"/><path class="cls-7" d="M51.8,46.22s.29-3.24-4.51-11.41c.08-.15.14-.24.2-.38a4.23,4.23,0,0,0,.25-.65c.19.45.5,1.15.88,2,.54,1.18,1.25,2.75,2,4.25C51.45,41.81,52.51,43.54,51.8,46.22Z" transform="translate(0 1.85)"/><path class="cls-8" d="M39.48,32.7s-.25.07.12-.75h.95l-.06,1Z" transform="translate(0 1.85)"/><path class="cls-9" d="M43.62,27.17a7,7,0,0,1-2.2,5.52A10.31,10.31,0,0,0,39,31.8a4.31,4.31,0,0,0-2-.06A8.77,8.77,0,0,1,32.3,33a2.29,2.29,0,0,1-2-2.5c-.26,0-2.91-.45-3.18-1.44s1.11-4.39,1.11-4.39a21.28,21.28,0,0,0,.85-2.15,2,2,0,0,1,.49-.93s.68-1,3.52,0c0,0,4.52,1.76,5.7,3.06C38.79,24.6,39.9,25.86,43.62,27.17Z" transform="translate(0 1.85)"/><path class="cls-10" d="M35.16,28.22s-3.53.67-4.86,2.23" transform="translate(0 1.85)"/><path class="cls-10" d="M33.89,28.56a9.53,9.53,0,0,1-1-1.58c-.17-.4-1.18-.2-1.46.8a1.11,1.11,0,0,0,.05.68" transform="translate(0 1.85)"/><path class="cls-10" d="M32.22,24.83a6.57,6.57,0,0,0,1.71,3.72" transform="translate(0 1.85)"/><path class="cls-11" d="M41.68,26.4s.12,1.47-2.18,6.32l2.93,1a10.18,10.18,0,0,0,2.13-6.23Z" transform="translate(0 1.85)"/><path class="cls-10" d="M31.57,27.35a3.88,3.88,0,0,0-1.5.08" transform="translate(0 1.85)"/><path class="cls-8" d="M14.26,24.08s.16.21.36-.67l-.67-.1-.19.56Z" transform="translate(0 1.85)"/><path class="cls-12" d="M14.37,17.18a7,7,0,0,0-1.64,5.71,10,10,0,0,1,2.48.79,4.36,4.36,0,0,1,1.63,1.18,8.79,8.79,0,0,0,2.95,3.81,2.29,2.29,0,0,0,3.11-.75c.21.15,2.57,1.43,3.39.81s1.81-4.15,1.81-4.15a21.22,21.22,0,0,1,.65-2.22,2,2,0,0,0,.17-1s.11-1.24-2.77-2.16c0,0-4.66-1.37-6.39-1.06C19.76,18.1,18.12,18.42,14.37,17.18Z" transform="translate(0 1.85)"/><path class="cls-13" d="M20.42,23.18s2.38,2.69,2.48,4.74" transform="translate(0 1.85)"/><path class="cls-13" d="M21.21,24.23A10.22,10.22,0,0,0,23,23.62c.37-.21,1.05.56.66,1.53a1.1,1.1,0,0,1-.46.51" transform="translate(0 1.85)"/><path class="cls-13" d="M24.82,22.3a6.5,6.5,0,0,1-3.63,1.89" transform="translate(0 1.85)"/><path class="cls-11" d="M16.38,17.75s-1,1.09-2.15,6.33l-2.93-1a10.22,10.22,0,0,1,2.13-6.23Z" transform="translate(0 1.85)"/><path class="cls-13" d="M23.79,24.69a4,4,0,0,1,1.13,1" transform="translate(0 1.85)"/><path class="cls-14" d="M47.47,10.89,42.22,1.81A3.61,3.61,0,0,0,39.09,0H17a3.62,3.62,0,0,0-3.14,1.81l-5.22,9a3.59,3.59,0,0,0-.49,1.81V32.85a3.59,3.59,0,0,0,.49,1.81l5.22,9.05A3.62,3.62,0,0,0,17,45.52h22.1a3.61,3.61,0,0,0,3.13-1.81l5.24-9.06a3.71,3.71,0,0,0,.48-1.81V12.7A3.71,3.71,0,0,0,47.47,10.89Zm-3,20A3.71,3.71,0,0,1,44,32.7l-4,7a3.61,3.61,0,0,1-3.14,1.82H19.31a3.61,3.61,0,0,1-3.14-1.82l-4-7a3.59,3.59,0,0,1-.49-1.81V14.62a3.62,3.62,0,0,1,.49-1.81l4-7A3.62,3.62,0,0,1,19.31,4H36.77a3.62,3.62,0,0,1,3.14,1.81l4,7a3.59,3.59,0,0,1,.49,1.81Z" transform="translate(0 1.85)"/><path class="cls-15" d="M39.91,5.83A3.62,3.62,0,0,0,36.77,4H19.31a3.62,3.62,0,0,0-3.14,1.81l-4,7a3.62,3.62,0,0,0-.49,1.81V30.9a3.59,3.59,0,0,0,.49,1.81l4,7a3.61,3.61,0,0,0,3.14,1.82H36.77a3.61,3.61,0,0,0,3.14-1.82l4-7a3.71,3.71,0,0,0,.48-1.81V14.65A3.59,3.59,0,0,0,44,12.84Zm3.33,24.4A3.71,3.71,0,0,1,42.76,32l-3.64,6.29A3.62,3.62,0,0,1,36,40.14H20.1A3.62,3.62,0,0,1,17,38.33l-3.63-6.28a3.61,3.61,0,0,1-.48-1.81v-15a3.61,3.61,0,0,1,.48-1.81L17,7.19A3.62,3.62,0,0,1,20.1,5.38H36a3.62,3.62,0,0,1,3.14,1.81l3.64,6.31a3.59,3.59,0,0,1,.49,1.81Z" transform="translate(0 1.85)"/><path class="cls-16" d="M39.12,7.19A3.62,3.62,0,0,0,36,5.38H20.1A3.62,3.62,0,0,0,17,7.19l-3.63,6.28a3.61,3.61,0,0,0-.48,1.81v15a3.61,3.61,0,0,0,.48,1.81L17,38.33a3.62,3.62,0,0,0,3.14,1.81H36a3.62,3.62,0,0,0,3.14-1.81L42.76,32a3.71,3.71,0,0,0,.48-1.81V15.31a3.59,3.59,0,0,0-.49-1.81ZM42.29,29.7a3.58,3.58,0,0,1-.48,1.81L38.5,37.25a3.64,3.64,0,0,1-3.14,1.81H20.72a3.64,3.64,0,0,1-3.14-1.81l-3.3-5.73a3.59,3.59,0,0,1-.49-1.81V15.81A3.59,3.59,0,0,1,14.28,14l3.3-5.73a3.64,3.64,0,0,1,3.14-1.81H35.36A3.64,3.64,0,0,1,38.5,8.27L41.82,14a3.71,3.71,0,0,1,.48,1.81Z" transform="translate(0 1.85)"/><path class="cls-17" d="M56.1,21.48l-.45-.36A39.62,39.62,0,0,0,48,16.31c0-.19,0-7.11,0-8.21a38.64,38.64,0,0,1,7.72,4.83c.16.11.31.24.46.36l-.32.23q-1.2.86-2.43,1.83,1.21,2.64,2.4,5.39c.1.25.21.49.32.74Z" transform="translate(0 1.85)"/><path class="cls-17" d="M8.14,16.19a37.78,37.78,0,0,0-7.66,4.9L0,21.45c.1-.24.21-.49.31-.74Q1.52,18,2.72,15.34c-.81-.64-1.61-1.26-2.4-1.83L0,13.29l.45-.37A38.08,38.08,0,0,1,8.14,8Z" transform="translate(0 1.85)"/><path class="cls-18" d="M5.19,13.14c1-.37,3.44-1.16,3.44-1.16a3.81,3.81,0,0,0-.39,1,4.22,4.22,0,0,0-.1,1.25C7.78,14.06,7.42,13.93,5.19,13.14Z" transform="translate(0 1.85)"/><path class="cls-18" d="M47.47,12A4.19,4.19,0,0,1,48,14.15c1-.36,2-.69,3-1" transform="translate(0 1.85)"/><path class="cls-19" d="M51.15,13.22l-.31-.11a68,68,0,0,0-45.42-.06l-.3.11V4.28l.3-.1a67.89,67.89,0,0,1,45.42.06l.31.11v8.87Z" transform="translate(0 1.85)"/><polygon class="cls-20" points="11.65 24.2 11.65 31.43 8.14 33.29 8.14 25.98 11.65 24.2"/><polygon class="cls-7" points="11.65 27.09 11.65 31.43 8.14 33.29 8.14 28.87 11.65 27.09"/><polygon class="cls-21" points="11.65 31.4 11.65 33.32 8.14 35.17 8.14 33.18 11.65 31.4"/><polygon class="cls-21" points="47.95 22.54 47.95 24.45 44.44 26.31 44.44 24.31 47.95 22.54"/><polygon class="cls-20" points="47.95 15.34 47.95 22.57 44.44 24.42 44.44 17.11 47.95 15.34"/><polygon class="cls-7" points="47.95 18.22 47.95 22.57 44.44 24.42 44.44 20 47.95 18.22"/></g></g></svg>