<svg id="Layer_1" data-name="Layer 1" xmlns="http://www.w3.org/2000/svg" viewBox="0 0 1617.51 1625.32"><defs><style>.cls-1{fill:#9bc1f9;}</style></defs><path class="cls-1" d="M1512.09,530.59c-266.57-5.65-488,206.62-493.7,473.19s206.62,488,473.19,493.7,488-206.62,493.7-473.19S1778.66,536.25,1512.09,530.59Zm-2.15,848.05h0c-201.36,4.47-368.23-155.14-372.7-356.5h0c-4.48-201.36,155.13-368.23,356.49-372.71h0c201.36-4.47,368.23,155.14,372.71,356.5h0C1870.91,1207.29,1711.31,1374.16,1509.94,1378.64Z" transform="translate(-690.49 -201.05)"/><path class="cls-1" d="M2303,889.13c-7.75-14.18-21.14-15.36-57.22-18.18-44.59-3.49-89.32-5.41-133.82-9.79-8.12-.8-19.19-8.37-22.48-15.69-21.26-47.25-39.79-95.73-61.36-142.83-6.28-13.71-7.2-22.23,2.56-34.24,34.38-42.29,67.61-85.51,101.23-128.42,5.45-7,10.66-14.1,19.9-26.37L1974.42,347.17c-50.1,43.19-96.28,81.72-140.8,122.08-15.69,14.23-26.68,17.7-47.71,7.59-43-20.67-88.8-35.34-132.92-53.77-6.76-2.83-14.2-12.06-15.26-19.22-8.1-54.7-16.31-109.48-21.06-164.53-2.28-26.42-13.46-35-37.79-34.1-9.35.35-18.83-2.68-28.24-4.17l-127,2.82c-4.54,1.5-9,3.78-13.63,4.37-48.75,6.24-40.93,2.25-44.69,48-4.57,55.77-8.21,111.61-11.72,160.05l-185.11,83.2-163-127.63c-66,50.07-118.85,109.75-165.92,176.78,42.58,49.2,84,97.27,125.73,145,7.5,8.57,10.23,14.78,4.75,27.28-21.45,48.94-41.68,98.51-59.71,148.79-5.2,14.5-11.71,18.24-25.21,19.84-55.75,6.58-111.35,14.45-167.07,21.27-13.85,1.69-20.91,6.14-23,21.8-9.36,70.25-3.58,139.62,8.2,208.93,2.33,13.72,10.6,15.55,22.37,16.26,54.43,3.31,108.78,7.94,163.22,10.88,15.69.85,22.8,5.2,28.93,21.38,21.18,55.9,45.62,110.56,70.68,170.14L866.07,1516.63c50.73,67.39,108.41,123.69,177,169.63l152.57-133.36c55,19.49,105.6,38.92,157.28,55,19.53,6.07,27.23,14.63,29.2,34.69,5.22,53.44,12.53,106.69,19.54,159.94,1.39,10.52.21,24.35,17.57,23.84q105.93-3.16,211.86-6.27c15-.46,20.1-8.47,20.92-23.32,3.07-55.25,8.56-110.38,10.7-165.64.82-21.33,11-27.89,28.62-35,43.54-17.48,87-35.94,128.23-58.1,17.79-9.56,26.82-8.63,41.6,3.63,47.49,39.39,96.52,76.91,143.94,114.36,43.52-24.68,141-129,168.71-179.79-41.46-47.08-82.89-95.12-125.64-142-10.69-11.72-10-19.76-4.27-33.69,18.4-45,33.63-91.2,51.58-136.36,3-7.59,12.89-16.43,20.62-17.54,49.12-7,98.5-12.37,147.85-17.7,27.59-3,38.74-4.08,44-14.6ZM1848.28,1375.5c-96.55,92.54-223.36,141.94-357.06,139.11s-258.31-57.57-350.85-154.13-141.94-223.36-139.11-357.06,57.57-258.31,154.13-350.85,223.36-141.94,357.07-139.11S1770.76,571,1863.3,667.59,2005.24,891,2002.41,1024.66,1944.84,1283,1848.28,1375.5Z" transform="translate(-690.49 -201.05)"/></svg>